<?xml version="1.0" encoding="UTF-8"?>
<svg id="Calque_1" data-name="Calque 1" xmlns="http://www.w3.org/2000/svg" viewBox="0 0 138.29 53.68">
  <defs>
    <style>
      .cls-1 {
        fill: #d3a922;
      }
    </style>
  </defs>
  <path d="M0,50.04l3.08-5.31c2.1,1.77,5.6,2.98,8.85,2.98h.23c8.39,0,15.2-6.95,15.2-15.27l-.13-32.44,5.96.03.1,32.48c0,11.76-9.4,21.17-21.07,21.17h-.36c-4,0-8.65-1.44-11.86-3.64Z"/>
  <path d="M60.32,25.91c-.45-.98-1.1-1.73-1.95-2.25s-1.83-.87-2.95-1.07c-1.12-.2-2.35-.3-3.69-.3l.27-3.62c2.68,0,4.92.25,6.71.74,1.79.49,3.21,1.29,4.26,2.38,1.05,1.09,1.81,2.57,2.28,4.43.47,1.86.7,4.15.7,6.88v19.73c-.18.04-.57.09-1.17.14-.6.04-1.31.1-2.11.16-.81.07-1.67.14-2.58.2s-1.82.11-2.72.14c-.9.02-1.72.03-2.48.03-2.06.04-3.98-.1-5.77-.44-1.79-.33-3.36-.94-4.7-1.81-1.34-.87-2.39-2.08-3.15-3.62-.76-1.55-1.14-3.5-1.14-5.88v-5.83c0-1.83.27-3.39.8-4.67.54-1.27,1.28-2.32,2.21-3.12.94-.81,2-1.39,3.19-1.75s2.42-.54,3.72-.54,2.68.17,4.02.51c1.34.34,2.61.78,3.79,1.34,1.19.56,2.23,1.22,3.12,1.98,0-1.52-.22-2.77-.67-3.76ZM58,32.19c-1.14-.47-2.35-.87-3.62-1.21s-2.56-.5-3.86-.5c-.54,0-1.12.08-1.74.23-.63.16-1.22.44-1.78.84-.56.4-1.02.99-1.38,1.75-.36.76-.54,1.77-.54,3.02v4.77c0,1.34.13,2.53.4,3.56.27,1.03.76,1.89,1.47,2.58s1.72,1.2,3.02,1.51c1.3.32,2.93.43,4.9.34.67,0,1.31-.02,1.91-.07s1.16-.09,1.68-.14.96-.08,1.34-.1c.38-.02.77-.06,1.17-.1v-15.03c-.85-.5-1.85-.98-2.99-1.45Z"/>
  <path d="M96.09,52.96c-.58.04-1.28.1-2.09.16-.8.07-1.67.14-2.58.2-.92.07-1.81.11-2.69.14s-1.67.03-2.38.03c-2.06.04-4-.11-5.81-.47-1.81-.36-3.4-.97-4.76-1.85s-2.43-2.08-3.19-3.63c-.76-1.54-1.14-3.47-1.14-5.81v-13.02c0-1.83.31-3.4.94-4.7.63-1.3,1.47-2.34,2.52-3.12,1.05-.78,2.21-1.36,3.49-1.74,1.28-.38,2.56-.57,3.86-.57,1.97,0,3.77.21,5.4.64s3.21.95,4.73,1.58V5.85h4.89v46.98c-.22.04-.62.09-1.2.14ZM88.07,24c-1.55-.47-3.3-.7-5.27-.7-.58,0-1.23.08-1.94.23-.72.16-1.41.43-2.08.84-.67.4-1.23,1-1.68,1.78-.45.78-.67,1.8-.67,3.05v11.81c0,1.39.14,2.58.44,3.59.29,1,.79,1.86,1.51,2.55.71.69,1.71,1.2,2.98,1.51,1.28.32,2.92.45,4.94.4.62-.04,1.23-.08,1.84-.1.61-.02,1.16-.05,1.68-.1s.96-.08,1.34-.1.8-.06,1.25-.1v-23.09c-1.34-.58-2.79-1.11-4.33-1.58Z"/>
  <path d="M108.43,46.05c.31.72.74,1.31,1.31,1.78s1.23.81,2.02,1.04c.78.22,1.62.33,2.51.33,1.52,0,3.08-.27,4.66-.8,1.59-.54,3.17-1.21,4.73-2.02l1.88,4.1c-1.61.98-3.41,1.76-5.4,2.32-1.99.56-3.9.84-5.74.84-1.65,0-3.18-.16-4.59-.5-1.41-.33-2.62-.89-3.63-1.68-1-.78-1.79-1.8-2.35-3.05s-.84-2.77-.84-4.57v-13.76c0-2.55.54-4.67,1.61-6.38,1.08-1.7,2.55-2.97,4.43-3.83,1.88-.85,4-1.28,6.38-1.28s4.43.42,6.2,1.24,3.15,2.08,4.13,3.76c.98,1.68,1.47,3.77,1.47,6.27v9.26l-19.26,1.01v3.35c0,.98.15,1.83.47,2.55ZM121.38,26.51c-.54-1.07-1.32-1.92-2.35-2.55-1.03-.63-2.26-.94-3.69-.94-1.61.05-2.97.37-4.06.97-1.1.6-1.92,1.46-2.48,2.58s-.84,2.48-.84,4.1v4.77l14.22-.68v-4.56c0-1.39-.26-2.62-.8-3.69Z"/>
  <path class="cls-1" d="M137.42,48.77c.58.56.87,1.24.87,2.04s-.29,1.43-.87,1.98c-.58.56-1.28.84-2.09.84-.75,0-1.42-.28-1.98-.84s-.84-1.22-.84-1.98c0-.8.28-1.49.84-2.04.56-.56,1.22-.84,1.98-.84.81,0,1.5.28,2.09.84Z"/>
</svg>