<?xml version="1.0" encoding="UTF-8"?>
<svg id="Calque_1" data-name="Calque 1" xmlns="http://www.w3.org/2000/svg" viewBox="0 0 95.94 103.77">
  <defs>
    <style>
      .cls-1 {
        fill: #d3a922;
      }
    </style>
  </defs>
  <path class="cls-1" d="M0,78.51l6.56-11.43c3.07,2.61,7.43,4.2,12.09,4.2h.36c11.07,0,20.09-9.33,20.09-20.29l-.26-50.99,12.97.05.26,51.04c0,18.5-14.71,33.11-32.95,33.11h-.56c-6.66,0-13.38-2.1-18.55-5.69Z"/>
  <path class="cls-1" d="M95.94,78.61c0,12.66-9.58,25.16-25.98,25.16h-30.9V21.16h22.55c14.25,0,23.88,10.25,23.88,21.22,0,8.92-6.2,14.86-9.28,14.86,9.28,0,19.73,8.51,19.73,21.37ZM51.97,33.77v20.6l10.25-.05c6.41.05,11.12-4.36,11.12-10.25s-5.12-10.3-10.97-10.3h-10.4ZM83.28,77.74c0-6.25-5.33-11.99-14.71-11.99l-16.6.05v25.32h16.81c7.43,0,14.5-5.38,14.5-13.38Z"/>
</svg>